# xmcd CD database file
#
# Track frame offsets:
#	150
#	27442
#	46580
#
# Disc length: 831 seconds
#
# Revision: 0
# Processed by: cddbd v1.5.1PL0 Copyright (c) Steve Scherf et al.
# Submitted via: CD2WAV32(EN) R3.19
#
DISCID=19033d03
DTITLE=LOVE PSYCHEDELICO - ????
DYEAR=1900
DGENRE=
TTITLE0=????
TTITLE1=This is a love song
TTITLE2=GRAPEFRUITS
EXTD=
EXTT0=
EXTT1=
EXTT2=
PLAYORDER=
